<svg xmlns="http://www.w3.org/2000/svg" viewBox="0 0 480 300" width="480" height="300">
  <defs>
    <linearGradient id="bg" x1="0%" y1="0%" x2="100%" y2="100%">
      <stop offset="0%" stop-color="#fdf2f8"/>
      <stop offset="100%" stop-color="#e0e7ff"/>
    </linearGradient>
  </defs>
  <rect width="480" height="300" fill="url(#bg)"/>
  <rect x="16" y="16" width="448" height="268" rx="14" fill="#ffffff" opacity="0.55" stroke="#ffffff" stroke-width="2"/>
  <text x="240" y="84" text-anchor="middle" font-family="Segoe UI, Arial, sans-serif" font-size="15" font-weight="700" fill="#8b5cf6" letter-spacing="2">MOUSETOPIA</text>

  <!-- Mouse icon -->
  <ellipse cx="240" cy="168" rx="46" ry="60" fill="#a78bfa" opacity="0.85"/>
  <path d="M214 112a26 26 0 0 1 52 0v28h-52z" fill="#c4b5fd"/>
  <line x1="240" y1="112" x2="240" y2="132" stroke="#8b5cf6" stroke-width="4" stroke-linecap="round"/>
  <path d="M240 168v30M226 180h28" stroke="#ffffff" stroke-width="3" stroke-linecap="round"/>
  <ellipse cx="240" cy="168" rx="46" ry="60" fill="none" stroke="#8b5cf6" stroke-width="2"/>

  <!-- Sparkles -->
  <path d="M330 116l4 9 9 4-9 4-4 9-4-9-9-4 9-4z" fill="#f472b6" opacity="0.6"/>
  <path d="M146 210l4 9 9 4-9 4-4 9-4-9-9-4 9-4z" fill="#a78bfa" opacity="0.6"/>

  <text x="240" y="270" text-anchor="middle" font-family="Segoe UI, Arial, sans-serif" font-size="24" fill="#ec4899">Business Project</text>
  <rect x="92" y="238" width="120" height="10" rx="5" fill="#c4b5fd" opacity="0.7"/>
  <rect x="268" y="238" width="120" height="10" rx="5" fill="#f9a8d4" opacity="0.7"/>
</svg>