<svg xmlns="http://www.w3.org/2000/svg" viewBox="0 0 480 300" width="480" height="300">
  <defs>
    <linearGradient id="bg" x1="0%" y1="0%" x2="100%" y2="100%">
      <stop offset="0%" stop-color="#e0f2fe"/>
      <stop offset="100%" stop-color="#fce7f3"/>
    </linearGradient>
  </defs>
  <rect width="480" height="300" fill="url(#bg)"/>
  <rect x="16" y="16" width="448" height="268" rx="14" fill="#ffffff" opacity="0.55" stroke="#ffffff" stroke-width="2"/>
  <text x="240" y="80" text-anchor="middle" font-family="Segoe UI, Arial, sans-serif" font-size="15" font-weight="700" fill="#c026d3" letter-spacing="2">PRODUCT DESIGN</text>

  <!-- Perfume bottle -->
  <path d="M210 120h60l-10 110a10 10 0 0 1-10 9h-20a10 10 0 0 1-10-9z" fill="#a78bfa" opacity="0.85"/>
  <rect x="225" y="86" width="30" height="34" rx="6" fill="#c4b5fd"/>
  <rect x="232" y="70" width="16" height="16" rx="4" fill="#e9d5ff"/>

  <!-- Bottle -->
  <rect x="300" y="120" width="64" height="96" rx="10" fill="#f9a8d4" opacity="0.85"/>
  <rect x="318" y="100" width="28" height="20" rx="5" fill="#f472b6" opacity="0.7"/>
  <rect x="310" y="136" width="44" height="8" rx="4" fill="#ffffff" opacity="0.5"/>

  <!-- Tumbler -->
  <path d="M120 236l6-116a6 6 0 0 1 6-6h44a6 6 0 0 1 6 6l6 116z" fill="#c4b5fd" opacity="0.85"/>
  <rect x="134" y="150" width="52" height="12" rx="6" fill="#8b5cf6" opacity="0.5"/>
  <path d="M122 224h56l-3 12h-50z" fill="#a78bfa"/>

  <text x="240" y="270" text-anchor="middle" font-family="Segoe UI, Arial, sans-serif" font-size="24" fill="#ec4899">Graphic Design</text>
  <rect x="92" y="238" width="120" height="10" rx="5" fill="#a5b4fc" opacity="0.7"/>
  <rect x="268" y="238" width="120" height="10" rx="5" fill="#f9a8d4" opacity="0.7"/>
</svg>