<svg xmlns="http://www.w3.org/2000/svg" viewBox="0 0 480 300" width="480" height="300">
  <defs>
    <linearGradient id="bg" x1="0%" y1="0%" x2="100%" y2="100%">
      <stop offset="0%" stop-color="#f3edff"/>
      <stop offset="100%" stop-color="#e0f2fe"/>
    </linearGradient>
  </defs>
  <rect width="480" height="300" fill="url(#bg)"/>
  <rect x="16" y="16" width="448" height="268" rx="14" fill="#ffffff" opacity="0.55" stroke="#ffffff" stroke-width="2"/>
  <text x="240" y="84" text-anchor="middle" font-family="Segoe UI, Arial, sans-serif" font-size="15" font-weight="700" fill="#8b5cf6" letter-spacing="2">DOCUMENTS</text>

  <!-- Document stack -->
  <rect x="134" y="112" width="212" height="10" rx="3" fill="#c4b5fd"/>
  <rect x="138" y="122" width="204" height="10" rx="3" fill="#d8b4fe"/>
  <rect x="142" y="146" width="196" height="94" rx="8" fill="#ffffff" stroke="#c4b5fd" stroke-width="2"/>
  <rect x="160" y="164" width="120" height="9" rx="4.5" fill="#e9d5ff"/>
  <rect x="160" y="184" width="150" height="9" rx="4.5" fill="#f3e8ff"/>
  <rect x="160" y="204" width="90" height="9" rx="4.5" fill="#e9d5ff"/>

  <!-- Badges -->
  <circle cx="176" cy="132" r="16" fill="#a78bfa" opacity="0.9"/>
  <text x="176" y="137" text-anchor="middle" font-family="Segoe UI, Arial, sans-serif" font-size="14" fill="#ffffff" font-weight="700">PRD</text>
  <circle cx="240" cy="132" r="16" fill="#ec4899" opacity="0.85"/>
  <text x="240" y="137" text-anchor="middle" font-family="Segoe UI, Arial, sans-serif" font-size="14" fill="#ffffff" font-weight="700">SRS</text>
  <circle cx="304" cy="132" r="16" fill="#f9a8d4" opacity="0.9"/>
  <text x="304" y="137" text-anchor="middle" font-family="Segoe UI, Arial, sans-serif" font-size="13" fill="#ffffff" font-weight="700">CHA</text>

  <text x="240" y="270" text-anchor="middle" font-family="Segoe UI, Arial, sans-serif" font-size="24" fill="#ec4899">Project Documentation</text>
  <rect x="92" y="238" width="120" height="10" rx="5" fill="#c4b5fd" opacity="0.7"/>
  <rect x="268" y="238" width="120" height="10" rx="5" fill="#f9a8d4" opacity="0.7"/>
</svg>